<mxfile host="Electron" agent="Mozilla/5.0 (X11; Linux x86_64) AppleWebKit/537.36 (KHTML, like Gecko) draw.io/26.2.2 Chrome/134.0.6998.178 Electron/35.1.2 Safari/537.36" version="26.2.2">
  <diagram name="Page-1" id="W8MKzIHO_7QyPUXCPeFz">
    <mxGraphModel dx="1530" dy="1501" grid="1" gridSize="10" guides="1" tooltips="1" connect="1" arrows="1" fold="1" page="1" pageScale="1" pageWidth="850" pageHeight="1100" math="0" shadow="0">
      <root>
        <mxCell id="0" />
        <mxCell id="1" parent="0" />
        <mxCell id="YZWkK0QSVy-SKpIgM2Q_-93" value="&lt;b style=&quot;font-size: 20px;&quot;&gt;&amp;nbsp;Song&lt;/b&gt;" style="rounded=0;whiteSpace=wrap;html=1;align=left;verticalAlign=top;fillColor=#f8cecc;strokeColor=#b85450;movable=0;resizable=0;rotatable=0;deletable=0;editable=0;locked=1;connectable=0;" parent="1" vertex="1">
          <mxGeometry x="570" y="280" width="330" height="520" as="geometry" />
        </mxCell>
        <mxCell id="YZWkK0QSVy-SKpIgM2Q_-92" value="&lt;b style=&quot;font-size: 20px;&quot;&gt;&amp;nbsp;Idle&lt;/b&gt;" style="rounded=0;whiteSpace=wrap;html=1;align=left;verticalAlign=top;fillColor=#f5f5f5;fontColor=#333333;strokeColor=#666666;movable=0;resizable=0;rotatable=0;deletable=0;editable=0;locked=1;connectable=0;" parent="1" vertex="1">
          <mxGeometry x="190" y="280" width="380" height="520" as="geometry" />
        </mxCell>
        <mxCell id="YZWkK0QSVy-SKpIgM2Q_-91" value="&lt;font style=&quot;font-size: 20px;&quot;&gt;&lt;b style=&quot;&quot;&gt;&amp;nbsp;Soundboard&lt;/b&gt;&lt;/font&gt;" style="rounded=0;whiteSpace=wrap;html=1;align=left;verticalAlign=top;fillColor=#fff2cc;strokeColor=#d6b656;movable=0;resizable=0;rotatable=0;deletable=0;editable=0;locked=1;connectable=0;" parent="1" vertex="1">
          <mxGeometry x="-270" y="280" width="460" height="520" as="geometry" />
        </mxCell>
        <mxCell id="YZWkK0QSVy-SKpIgM2Q_-5" style="edgeStyle=orthogonalEdgeStyle;rounded=0;orthogonalLoop=1;jettySize=auto;html=1;exitX=0.5;exitY=1;exitDx=0;exitDy=0;movable=1;resizable=1;rotatable=1;deletable=1;editable=1;locked=0;connectable=1;" parent="1" source="YZWkK0QSVy-SKpIgM2Q_-1" target="YZWkK0QSVy-SKpIgM2Q_-4" edge="1">
          <mxGeometry relative="1" as="geometry" />
        </mxCell>
        <mxCell id="YZWkK0QSVy-SKpIgM2Q_-1" value="Power ON" style="ellipse;whiteSpace=wrap;html=1;aspect=fixed;movable=1;resizable=1;rotatable=1;deletable=1;editable=1;locked=0;connectable=1;" parent="1" vertex="1">
          <mxGeometry x="350" y="-30" width="80" height="80" as="geometry" />
        </mxCell>
        <mxCell id="YZWkK0QSVy-SKpIgM2Q_-14" style="edgeStyle=orthogonalEdgeStyle;rounded=0;orthogonalLoop=1;jettySize=auto;html=1;exitX=0.5;exitY=1;exitDx=0;exitDy=0;entryX=0.5;entryY=0;entryDx=0;entryDy=0;movable=1;resizable=1;rotatable=1;deletable=1;editable=1;locked=0;connectable=1;" parent="1" source="YZWkK0QSVy-SKpIgM2Q_-2" target="YZWkK0QSVy-SKpIgM2Q_-9" edge="1">
          <mxGeometry relative="1" as="geometry" />
        </mxCell>
        <mxCell id="YZWkK0QSVy-SKpIgM2Q_-20" value="&lt;font style=&quot;font-size: 10px;&quot;&gt;&lt;b&gt;R&lt;/b&gt;&amp;nbsp;key pressed&lt;br&gt;&lt;br&gt;OR&lt;br&gt;&lt;br&gt;No keypad input&lt;/font&gt;&lt;div style=&quot;font-size: 12px;&quot;&gt;&lt;font style=&quot;font-size: 10px;&quot;&gt;for 5 seconds&lt;/font&gt;&lt;/div&gt;" style="edgeLabel;html=1;align=center;verticalAlign=middle;resizable=1;points=[];movable=1;rotatable=1;deletable=1;editable=1;locked=0;connectable=1;labelBackgroundColor=#F5F5F5;" parent="YZWkK0QSVy-SKpIgM2Q_-14" vertex="1" connectable="0">
          <mxGeometry x="-0.0656" y="-2" relative="1" as="geometry">
            <mxPoint as="offset" />
          </mxGeometry>
        </mxCell>
        <mxCell id="YZWkK0QSVy-SKpIgM2Q_-27" style="edgeStyle=orthogonalEdgeStyle;rounded=0;orthogonalLoop=1;jettySize=auto;html=1;movable=1;resizable=1;rotatable=1;deletable=1;editable=1;locked=0;connectable=1;" parent="1" source="YZWkK0QSVy-SKpIgM2Q_-2" target="YZWkK0QSVy-SKpIgM2Q_-26" edge="1">
          <mxGeometry relative="1" as="geometry">
            <Array as="points">
              <mxPoint x="710" y="550" />
              <mxPoint x="710" y="529" />
            </Array>
          </mxGeometry>
        </mxCell>
        <mxCell id="YZWkK0QSVy-SKpIgM2Q_-29" value="&lt;b&gt;G&lt;/b&gt;&amp;nbsp;key pressed" style="edgeLabel;html=1;align=center;verticalAlign=middle;resizable=1;points=[];movable=1;rotatable=1;deletable=1;editable=1;locked=0;connectable=1;labelBackgroundColor=#F8CECC;" parent="YZWkK0QSVy-SKpIgM2Q_-27" vertex="1" connectable="0">
          <mxGeometry x="-0.049" y="-2" relative="1" as="geometry">
            <mxPoint as="offset" />
          </mxGeometry>
        </mxCell>
        <mxCell id="YZWkK0QSVy-SKpIgM2Q_-72" style="edgeStyle=orthogonalEdgeStyle;rounded=0;orthogonalLoop=1;jettySize=auto;html=1;entryX=1;entryY=0.25;entryDx=0;entryDy=0;movable=1;resizable=1;rotatable=1;deletable=1;editable=1;locked=0;connectable=1;" parent="1" target="YZWkK0QSVy-SKpIgM2Q_-42" edge="1">
          <mxGeometry relative="1" as="geometry">
            <mxPoint x="308" y="490" as="sourcePoint" />
            <mxPoint x="100" y="490" as="targetPoint" />
            <Array as="points">
              <mxPoint x="308" y="491" />
              <mxPoint x="90" y="491" />
              <mxPoint x="90" y="514" />
            </Array>
          </mxGeometry>
        </mxCell>
        <mxCell id="YZWkK0QSVy-SKpIgM2Q_-74" value="&lt;strong style=&quot;color: rgb(59, 59, 59); font-family: -apple-system, BlinkMacSystemFont, &amp;quot;Segoe WPC&amp;quot;, &amp;quot;Segoe UI&amp;quot;, system-ui, Ubuntu, &amp;quot;Droid Sans&amp;quot;, sans-serif; text-align: start; text-wrap-mode: wrap;&quot;&gt;&lt;font style=&quot;font-size: 12px;&quot;&gt;ðŸŸ¡&amp;nbsp;&lt;/font&gt;&lt;/strong&gt;Pressed" style="edgeLabel;html=1;align=center;verticalAlign=middle;resizable=1;points=[];movable=1;rotatable=1;deletable=1;editable=1;locked=0;connectable=1;labelBackgroundColor=#F5F5F5;" parent="YZWkK0QSVy-SKpIgM2Q_-72" vertex="1" connectable="0">
          <mxGeometry x="-0.2105" y="1" relative="1" as="geometry">
            <mxPoint x="34" y="-1" as="offset" />
          </mxGeometry>
        </mxCell>
        <mxCell id="YZWkK0QSVy-SKpIgM2Q_-96" style="edgeStyle=orthogonalEdgeStyle;rounded=0;orthogonalLoop=1;jettySize=auto;html=1;" parent="1" source="YZWkK0QSVy-SKpIgM2Q_-2" target="YZWkK0QSVy-SKpIgM2Q_-94" edge="1">
          <mxGeometry relative="1" as="geometry">
            <Array as="points">
              <mxPoint x="480" y="515" />
              <mxPoint x="480" y="515" />
            </Array>
          </mxGeometry>
        </mxCell>
        <mxCell id="YZWkK0QSVy-SKpIgM2Q_-98" value="&lt;strong style=&quot;forced-color-adjust: none; font-size: 11px; font-style: normal; font-variant-ligatures: normal; font-variant-caps: normal; letter-spacing: normal; orphans: 2; text-indent: 0px; text-transform: none; widows: 2; word-spacing: 0px; -webkit-text-stroke-width: 0px; white-space: normal; text-decoration-thickness: initial; text-decoration-style: initial; text-decoration-color: initial; color: rgb(59, 59, 59); font-family: -apple-system, BlinkMacSystemFont, &amp;quot;Segoe WPC&amp;quot;, &amp;quot;Segoe UI&amp;quot;, system-ui, Ubuntu, &amp;quot;Droid Sans&amp;quot;, sans-serif; text-align: start;&quot;&gt;&lt;font style=&quot;forced-color-adjust: none; font-size: 12px;&quot;&gt;&lt;strong style=&quot;&quot;&gt;ðŸ”µ&lt;/strong&gt;&amp;nbsp;&lt;/font&gt;&lt;/strong&gt;&lt;span style=&quot;color: rgb(0, 0, 0); font-family: Helvetica; font-size: 11px; font-style: normal; font-variant-ligatures: normal; font-variant-caps: normal; font-weight: 400; letter-spacing: normal; orphans: 2; text-align: center; text-indent: 0px; text-transform: none; widows: 2; word-spacing: 0px; -webkit-text-stroke-width: 0px; white-space: nowrap; text-decoration-thickness: initial; text-decoration-style: initial; text-decoration-color: initial; float: none; display: inline !important;&quot;&gt;Pressed&lt;/span&gt;" style="edgeLabel;html=1;align=center;verticalAlign=middle;resizable=0;points=[];labelBackgroundColor=#F5F5F5;" parent="YZWkK0QSVy-SKpIgM2Q_-96" vertex="1" connectable="0">
          <mxGeometry x="0.0857" y="1" relative="1" as="geometry">
            <mxPoint x="-23" y="1" as="offset" />
          </mxGeometry>
        </mxCell>
        <mxCell id="YZWkK0QSVy-SKpIgM2Q_-2" value="&lt;b&gt;Main Menu&lt;br&gt;&lt;/b&gt;&lt;br&gt;Await keypad input,&lt;div&gt;occasionally blink lights&lt;/div&gt;" style="rounded=1;whiteSpace=wrap;html=1;movable=1;resizable=1;rotatable=1;deletable=1;editable=1;locked=0;connectable=1;strokeWidth=2;" parent="1" vertex="1">
          <mxGeometry x="310" y="470" width="160" height="120" as="geometry" />
        </mxCell>
        <mxCell id="YZWkK0QSVy-SKpIgM2Q_-7" style="edgeStyle=orthogonalEdgeStyle;rounded=0;orthogonalLoop=1;jettySize=auto;html=1;movable=1;resizable=1;rotatable=1;deletable=1;editable=1;locked=0;connectable=1;" parent="1" source="YZWkK0QSVy-SKpIgM2Q_-4" target="YZWkK0QSVy-SKpIgM2Q_-6" edge="1">
          <mxGeometry relative="1" as="geometry" />
        </mxCell>
        <mxCell id="YZWkK0QSVy-SKpIgM2Q_-4" value="" style="shape=collate;html=1;movable=1;resizable=1;rotatable=1;deletable=1;editable=1;locked=0;connectable=1;" parent="1" vertex="1">
          <mxGeometry x="370" y="100" width="40" height="40" as="geometry" />
        </mxCell>
        <mxCell id="YZWkK0QSVy-SKpIgM2Q_-8" style="edgeStyle=orthogonalEdgeStyle;rounded=0;orthogonalLoop=1;jettySize=auto;html=1;movable=1;resizable=1;rotatable=1;deletable=1;editable=1;locked=0;connectable=1;" parent="1" source="YZWkK0QSVy-SKpIgM2Q_-6" target="YZWkK0QSVy-SKpIgM2Q_-2" edge="1">
          <mxGeometry relative="1" as="geometry" />
        </mxCell>
        <mxCell id="YZWkK0QSVy-SKpIgM2Q_-6" value="Flash LED Lights" style="rounded=1;whiteSpace=wrap;html=1;movable=1;resizable=1;rotatable=1;deletable=1;editable=1;locked=0;connectable=1;" parent="1" vertex="1">
          <mxGeometry x="330" y="180" width="120" height="60" as="geometry" />
        </mxCell>
        <mxCell id="YZWkK0QSVy-SKpIgM2Q_-23" style="edgeStyle=orthogonalEdgeStyle;rounded=0;orthogonalLoop=1;jettySize=auto;html=1;movable=1;resizable=1;rotatable=1;deletable=1;editable=1;locked=0;connectable=1;" parent="1" source="YZWkK0QSVy-SKpIgM2Q_-9" target="YZWkK0QSVy-SKpIgM2Q_-22" edge="1">
          <mxGeometry relative="1" as="geometry" />
        </mxCell>
        <mxCell id="YZWkK0QSVy-SKpIgM2Q_-9" value="Clear current input" style="rounded=1;whiteSpace=wrap;html=1;movable=1;resizable=1;rotatable=1;deletable=1;editable=1;locked=0;connectable=1;" parent="1" vertex="1">
          <mxGeometry x="330" y="710" width="120" height="60" as="geometry" />
        </mxCell>
        <mxCell id="YZWkK0QSVy-SKpIgM2Q_-24" style="edgeStyle=orthogonalEdgeStyle;rounded=0;orthogonalLoop=1;jettySize=auto;html=1;entryX=0;entryY=0.75;entryDx=0;entryDy=0;exitX=0.5;exitY=0;exitDx=0;exitDy=0;curved=0;movable=1;resizable=1;rotatable=1;deletable=1;editable=1;locked=0;connectable=1;" parent="1" source="YZWkK0QSVy-SKpIgM2Q_-22" target="YZWkK0QSVy-SKpIgM2Q_-2" edge="1">
          <mxGeometry relative="1" as="geometry">
            <Array as="points">
              <mxPoint x="250" y="560" />
            </Array>
          </mxGeometry>
        </mxCell>
        <mxCell id="YZWkK0QSVy-SKpIgM2Q_-22" value="Flash lights" style="rounded=1;whiteSpace=wrap;html=1;movable=1;resizable=1;rotatable=1;deletable=1;editable=1;locked=0;connectable=1;" parent="1" vertex="1">
          <mxGeometry x="210" y="720" width="80" height="40" as="geometry" />
        </mxCell>
        <mxCell id="YZWkK0QSVy-SKpIgM2Q_-30" style="edgeStyle=orthogonalEdgeStyle;rounded=0;orthogonalLoop=1;jettySize=auto;html=1;entryX=0.5;entryY=1;entryDx=0;entryDy=0;movable=1;resizable=1;rotatable=1;deletable=1;editable=1;locked=0;connectable=1;" parent="1" source="YZWkK0QSVy-SKpIgM2Q_-26" target="YZWkK0QSVy-SKpIgM2Q_-28" edge="1">
          <mxGeometry relative="1" as="geometry" />
        </mxCell>
        <mxCell id="YZWkK0QSVy-SKpIgM2Q_-33" style="edgeStyle=orthogonalEdgeStyle;rounded=0;orthogonalLoop=1;jettySize=auto;html=1;exitX=0.5;exitY=1;exitDx=0;exitDy=0;movable=1;resizable=1;rotatable=1;deletable=1;editable=1;locked=0;connectable=1;" parent="1" source="YZWkK0QSVy-SKpIgM2Q_-26" target="YZWkK0QSVy-SKpIgM2Q_-32" edge="1">
          <mxGeometry relative="1" as="geometry" />
        </mxCell>
        <mxCell id="YZWkK0QSVy-SKpIgM2Q_-35" value="Yes" style="edgeLabel;html=1;align=center;verticalAlign=middle;resizable=1;points=[];movable=1;rotatable=1;deletable=1;editable=1;locked=0;connectable=1;labelBackgroundColor=#F8CECC;" parent="YZWkK0QSVy-SKpIgM2Q_-33" vertex="1" connectable="0">
          <mxGeometry x="-0.6167" relative="1" as="geometry">
            <mxPoint x="-1" y="7" as="offset" />
          </mxGeometry>
        </mxCell>
        <mxCell id="YZWkK0QSVy-SKpIgM2Q_-41" value="" style="edgeStyle=orthogonalEdgeStyle;rounded=0;orthogonalLoop=1;jettySize=auto;html=1;movable=1;resizable=1;rotatable=1;deletable=1;editable=1;locked=0;connectable=1;" parent="1" source="YZWkK0QSVy-SKpIgM2Q_-26" target="YZWkK0QSVy-SKpIgM2Q_-28" edge="1">
          <mxGeometry relative="1" as="geometry">
            <Array as="points">
              <mxPoint x="820" y="485" />
              <mxPoint x="820" y="485" />
            </Array>
          </mxGeometry>
        </mxCell>
        <mxCell id="YZWkK0QSVy-SKpIgM2Q_-88" value="No" style="edgeLabel;html=1;align=center;verticalAlign=middle;resizable=1;points=[];movable=1;rotatable=1;deletable=1;editable=1;locked=0;connectable=1;labelBackgroundColor=#F8CECC;" parent="YZWkK0QSVy-SKpIgM2Q_-41" vertex="1" connectable="0">
          <mxGeometry x="-0.2896" relative="1" as="geometry">
            <mxPoint as="offset" />
          </mxGeometry>
        </mxCell>
        <mxCell id="YZWkK0QSVy-SKpIgM2Q_-26" value="Track&lt;br&gt;exists?" style="rhombus;whiteSpace=wrap;html=1;movable=1;resizable=1;rotatable=1;deletable=1;editable=1;locked=0;connectable=1;" parent="1" vertex="1">
          <mxGeometry x="780" y="489.34" width="80" height="80" as="geometry" />
        </mxCell>
        <mxCell id="YZWkK0QSVy-SKpIgM2Q_-31" style="edgeStyle=orthogonalEdgeStyle;rounded=0;orthogonalLoop=1;jettySize=auto;html=1;exitX=0;exitY=0.5;exitDx=0;exitDy=0;movable=1;resizable=1;rotatable=1;deletable=1;editable=1;locked=0;connectable=1;entryX=1;entryY=0.138;entryDx=0;entryDy=0;entryPerimeter=0;" parent="1" source="YZWkK0QSVy-SKpIgM2Q_-28" target="YZWkK0QSVy-SKpIgM2Q_-2" edge="1">
          <mxGeometry relative="1" as="geometry">
            <Array as="points">
              <mxPoint x="620" y="425" />
              <mxPoint x="620" y="487" />
              <mxPoint x="470" y="487" />
            </Array>
          </mxGeometry>
        </mxCell>
        <mxCell id="YZWkK0QSVy-SKpIgM2Q_-28" value="Play TrackMissing.wav" style="rounded=1;whiteSpace=wrap;html=1;movable=1;resizable=1;rotatable=1;deletable=1;editable=1;locked=0;connectable=1;" parent="1" vertex="1">
          <mxGeometry x="760" y="395" width="120" height="60" as="geometry" />
        </mxCell>
        <mxCell id="YZWkK0QSVy-SKpIgM2Q_-38" style="edgeStyle=orthogonalEdgeStyle;rounded=0;orthogonalLoop=1;jettySize=auto;html=1;movable=1;resizable=1;rotatable=1;deletable=1;editable=1;locked=0;connectable=1;" parent="1" source="YZWkK0QSVy-SKpIgM2Q_-32" target="YZWkK0QSVy-SKpIgM2Q_-37" edge="1">
          <mxGeometry relative="1" as="geometry" />
        </mxCell>
        <mxCell id="YZWkK0QSVy-SKpIgM2Q_-32" value="Play Load.wav" style="rounded=1;whiteSpace=wrap;html=1;movable=1;resizable=1;rotatable=1;deletable=1;editable=1;locked=0;connectable=1;" parent="1" vertex="1">
          <mxGeometry x="760" y="615" width="120" height="50" as="geometry" />
        </mxCell>
        <mxCell id="YZWkK0QSVy-SKpIgM2Q_-37" value="Play song and blink lights" style="rounded=1;whiteSpace=wrap;html=1;movable=1;resizable=1;rotatable=1;deletable=1;editable=1;locked=0;connectable=1;" parent="1" vertex="1">
          <mxGeometry x="760.8" y="701.32" width="120" height="50" as="geometry" />
        </mxCell>
        <mxCell id="YZWkK0QSVy-SKpIgM2Q_-39" style="edgeStyle=orthogonalEdgeStyle;rounded=0;orthogonalLoop=1;jettySize=auto;html=1;entryX=1.004;entryY=0.824;entryDx=0;entryDy=0;entryPerimeter=0;movable=1;resizable=1;rotatable=1;deletable=1;editable=1;locked=0;connectable=1;" parent="1" source="YZWkK0QSVy-SKpIgM2Q_-37" target="YZWkK0QSVy-SKpIgM2Q_-2" edge="1">
          <mxGeometry relative="1" as="geometry">
            <mxPoint x="470.00000000000006" y="550.0000000000001" as="targetPoint" />
            <Array as="points">
              <mxPoint x="620" y="721" />
              <mxPoint x="620" y="569" />
            </Array>
          </mxGeometry>
        </mxCell>
        <mxCell id="YZWkK0QSVy-SKpIgM2Q_-40" value="Track finished&lt;br&gt;&lt;br&gt;OR&lt;br&gt;&lt;br&gt;&lt;div style=&quot;color: rgb(59, 59, 59); font-family: &amp;quot;Droid Sans Mono&amp;quot;, &amp;quot;monospace&amp;quot;, monospace; line-height: 19px; white-space-collapse: preserve;&quot;&gt;&lt;span style=&quot;color: rgb(0, 0, 128); font-weight: bold;&quot;&gt;&lt;font style=&quot;font-size: 12px;&quot;&gt;ðŸ”´ &lt;/font&gt;&lt;/span&gt;&lt;span style=&quot;font-size: 11px; color: light-dark(rgb(0, 0, 0), rgb(255, 255, 255)); font-family: Helvetica; white-space-collapse: collapse;&quot;&gt;Pressed&lt;/span&gt;&lt;/div&gt;" style="edgeLabel;html=1;align=center;verticalAlign=middle;resizable=1;points=[];labelBackgroundColor=#F8CECC;movable=1;rotatable=1;deletable=1;editable=1;locked=0;connectable=1;" parent="YZWkK0QSVy-SKpIgM2Q_-39" vertex="1" connectable="0">
          <mxGeometry x="-0.5412" y="1" relative="1" as="geometry">
            <mxPoint x="-35" y="-82" as="offset" />
          </mxGeometry>
        </mxCell>
        <mxCell id="YZWkK0QSVy-SKpIgM2Q_-50" style="edgeStyle=orthogonalEdgeStyle;rounded=0;orthogonalLoop=1;jettySize=auto;html=1;exitX=0;exitY=0.5;exitDx=0;exitDy=0;movable=1;resizable=1;rotatable=1;deletable=1;editable=1;locked=0;connectable=1;" parent="1" source="YZWkK0QSVy-SKpIgM2Q_-42" target="YZWkK0QSVy-SKpIgM2Q_-47" edge="1">
          <mxGeometry relative="1" as="geometry" />
        </mxCell>
        <mxCell id="YZWkK0QSVy-SKpIgM2Q_-61" style="edgeStyle=orthogonalEdgeStyle;rounded=0;orthogonalLoop=1;jettySize=auto;html=1;exitX=0.75;exitY=0;exitDx=0;exitDy=0;entryX=0.5;entryY=1;entryDx=0;entryDy=0;movable=1;resizable=1;rotatable=1;deletable=1;editable=1;locked=0;connectable=1;" parent="1" source="YZWkK0QSVy-SKpIgM2Q_-42" target="YZWkK0QSVy-SKpIgM2Q_-57" edge="1">
          <mxGeometry relative="1" as="geometry">
            <Array as="points">
              <mxPoint x="-10" y="499.34" />
            </Array>
          </mxGeometry>
        </mxCell>
        <mxCell id="YZWkK0QSVy-SKpIgM2Q_-77" value="&lt;span style=&quot;color: rgb(0, 0, 128); font-family: &amp;quot;Droid Sans Mono&amp;quot;, &amp;quot;monospace&amp;quot;, monospace; font-size: 12px; font-weight: 700; white-space-collapse: preserve;&quot;&gt;ðŸ”´&lt;/span&gt;" style="edgeLabel;html=1;align=center;verticalAlign=middle;resizable=1;points=[];movable=1;rotatable=1;deletable=1;editable=1;locked=0;connectable=1;labelBackgroundColor=#FFF2CC;" parent="YZWkK0QSVy-SKpIgM2Q_-61" vertex="1" connectable="0">
          <mxGeometry x="0.3733" relative="1" as="geometry">
            <mxPoint as="offset" />
          </mxGeometry>
        </mxCell>
        <mxCell id="YZWkK0QSVy-SKpIgM2Q_-66" style="edgeStyle=orthogonalEdgeStyle;rounded=0;orthogonalLoop=1;jettySize=auto;html=1;movable=1;resizable=1;rotatable=1;deletable=1;editable=1;locked=0;connectable=1;" parent="1" source="YZWkK0QSVy-SKpIgM2Q_-42" target="YZWkK0QSVy-SKpIgM2Q_-65" edge="1">
          <mxGeometry relative="1" as="geometry" />
        </mxCell>
        <mxCell id="YZWkK0QSVy-SKpIgM2Q_-78" value="&lt;strong style=&quot;color: rgb(59, 59, 59); font-family: -apple-system, BlinkMacSystemFont, &amp;quot;Segoe WPC&amp;quot;, &amp;quot;Segoe UI&amp;quot;, system-ui, Ubuntu, &amp;quot;Droid Sans&amp;quot;, sans-serif; text-align: start; text-wrap-mode: wrap;&quot;&gt;&lt;font style=&quot;font-size: 12px;&quot;&gt;ðŸ”µ&lt;/font&gt;&lt;/strong&gt;" style="edgeLabel;html=1;align=center;verticalAlign=middle;resizable=1;points=[];movable=1;rotatable=1;deletable=1;editable=1;locked=0;connectable=1;labelBackgroundColor=#FFF2CC;" parent="YZWkK0QSVy-SKpIgM2Q_-66" vertex="1" connectable="0">
          <mxGeometry x="-0.4876" y="-1" relative="1" as="geometry">
            <mxPoint x="1" y="7" as="offset" />
          </mxGeometry>
        </mxCell>
        <mxCell id="YZWkK0QSVy-SKpIgM2Q_-42" value="Await keypad input" style="rounded=1;whiteSpace=wrap;html=1;movable=1;resizable=1;rotatable=1;deletable=1;editable=1;locked=0;connectable=1;" parent="1" vertex="1">
          <mxGeometry x="-70" y="499.34" width="120" height="60" as="geometry" />
        </mxCell>
        <mxCell id="YZWkK0QSVy-SKpIgM2Q_-53" style="edgeStyle=orthogonalEdgeStyle;rounded=0;orthogonalLoop=1;jettySize=auto;html=1;movable=1;resizable=1;rotatable=1;deletable=1;editable=1;locked=0;connectable=1;" parent="1" source="YZWkK0QSVy-SKpIgM2Q_-47" target="YZWkK0QSVy-SKpIgM2Q_-48" edge="1">
          <mxGeometry relative="1" as="geometry" />
        </mxCell>
        <mxCell id="YZWkK0QSVy-SKpIgM2Q_-86" value="&lt;span&gt;No&lt;/span&gt;" style="edgeLabel;html=1;align=center;verticalAlign=middle;resizable=1;points=[];movable=1;rotatable=1;deletable=1;editable=1;locked=0;connectable=1;labelBackgroundColor=#FFF2CC;" parent="YZWkK0QSVy-SKpIgM2Q_-53" vertex="1" connectable="0">
          <mxGeometry x="-0.4074" y="-1" relative="1" as="geometry">
            <mxPoint as="offset" />
          </mxGeometry>
        </mxCell>
        <mxCell id="YZWkK0QSVy-SKpIgM2Q_-54" style="edgeStyle=orthogonalEdgeStyle;rounded=0;orthogonalLoop=1;jettySize=auto;html=1;movable=1;resizable=1;rotatable=1;deletable=1;editable=1;locked=0;connectable=1;" parent="1" source="YZWkK0QSVy-SKpIgM2Q_-47" target="YZWkK0QSVy-SKpIgM2Q_-49" edge="1">
          <mxGeometry relative="1" as="geometry" />
        </mxCell>
        <mxCell id="YZWkK0QSVy-SKpIgM2Q_-87" value="Yes" style="edgeLabel;html=1;align=center;verticalAlign=middle;resizable=1;points=[];movable=1;rotatable=1;deletable=1;editable=1;locked=0;connectable=1;labelBackgroundColor=#FFF2CC;" parent="YZWkK0QSVy-SKpIgM2Q_-54" vertex="1" connectable="0">
          <mxGeometry x="-0.2" relative="1" as="geometry">
            <mxPoint as="offset" />
          </mxGeometry>
        </mxCell>
        <mxCell id="YZWkK0QSVy-SKpIgM2Q_-47" value="Sample&lt;br&gt;exists?" style="rhombus;whiteSpace=wrap;html=1;movable=1;resizable=1;rotatable=1;deletable=1;editable=1;locked=0;connectable=1;" parent="1" vertex="1">
          <mxGeometry x="-230" y="489.34" width="80" height="80" as="geometry" />
        </mxCell>
        <mxCell id="YZWkK0QSVy-SKpIgM2Q_-52" style="edgeStyle=orthogonalEdgeStyle;rounded=0;orthogonalLoop=1;jettySize=auto;html=1;movable=1;resizable=1;rotatable=1;deletable=1;editable=1;locked=0;connectable=1;" parent="1" source="YZWkK0QSVy-SKpIgM2Q_-48" target="YZWkK0QSVy-SKpIgM2Q_-42" edge="1">
          <mxGeometry relative="1" as="geometry">
            <Array as="points">
              <mxPoint x="-40" y="424.34" />
            </Array>
          </mxGeometry>
        </mxCell>
        <mxCell id="YZWkK0QSVy-SKpIgM2Q_-48" value="Play SampleMissing.wav" style="rounded=1;whiteSpace=wrap;html=1;movable=1;resizable=1;rotatable=1;deletable=1;editable=1;locked=0;connectable=1;" parent="1" vertex="1">
          <mxGeometry x="-250" y="394.34" width="120" height="60" as="geometry" />
        </mxCell>
        <mxCell id="YZWkK0QSVy-SKpIgM2Q_-55" style="edgeStyle=orthogonalEdgeStyle;rounded=0;orthogonalLoop=1;jettySize=auto;html=1;movable=1;resizable=1;rotatable=1;deletable=1;editable=1;locked=0;connectable=1;" parent="1" source="YZWkK0QSVy-SKpIgM2Q_-49" target="YZWkK0QSVy-SKpIgM2Q_-42" edge="1">
          <mxGeometry relative="1" as="geometry">
            <Array as="points">
              <mxPoint x="-40" y="634.34" />
            </Array>
          </mxGeometry>
        </mxCell>
        <mxCell id="YZWkK0QSVy-SKpIgM2Q_-49" value="Play Sample" style="rounded=1;whiteSpace=wrap;html=1;movable=1;resizable=1;rotatable=1;deletable=1;editable=1;locked=0;connectable=1;" parent="1" vertex="1">
          <mxGeometry x="-250" y="609.34" width="120" height="50" as="geometry" />
        </mxCell>
        <mxCell id="YZWkK0QSVy-SKpIgM2Q_-64" style="edgeStyle=orthogonalEdgeStyle;rounded=0;orthogonalLoop=1;jettySize=auto;html=1;movable=1;resizable=1;rotatable=1;deletable=1;editable=1;locked=0;connectable=1;" parent="1" source="YZWkK0QSVy-SKpIgM2Q_-56" edge="1">
          <mxGeometry relative="1" as="geometry">
            <mxPoint x="40" y="499.34" as="targetPoint" />
            <Array as="points">
              <mxPoint x="50" y="349.34" />
              <mxPoint x="50" y="439.34" />
              <mxPoint x="40" y="439.34" />
            </Array>
          </mxGeometry>
        </mxCell>
        <mxCell id="YZWkK0QSVy-SKpIgM2Q_-56" value="Load next bank" style="rounded=1;whiteSpace=wrap;html=1;movable=1;resizable=1;rotatable=1;deletable=1;editable=1;locked=0;connectable=1;" parent="1" vertex="1">
          <mxGeometry x="-50" y="329.34" width="80" height="40" as="geometry" />
        </mxCell>
        <mxCell id="YZWkK0QSVy-SKpIgM2Q_-63" style="edgeStyle=orthogonalEdgeStyle;rounded=0;orthogonalLoop=1;jettySize=auto;html=1;movable=1;resizable=1;rotatable=1;deletable=1;editable=1;locked=0;connectable=1;" parent="1" source="YZWkK0QSVy-SKpIgM2Q_-57" target="YZWkK0QSVy-SKpIgM2Q_-56" edge="1">
          <mxGeometry relative="1" as="geometry" />
        </mxCell>
        <mxCell id="YZWkK0QSVy-SKpIgM2Q_-85" value="Yes" style="edgeLabel;html=1;align=center;verticalAlign=middle;resizable=1;points=[];movable=1;rotatable=1;deletable=1;editable=1;locked=0;connectable=1;labelBackgroundColor=#FFF2CC;" parent="YZWkK0QSVy-SKpIgM2Q_-63" vertex="1" connectable="0">
          <mxGeometry x="0.1111" relative="1" as="geometry">
            <mxPoint as="offset" />
          </mxGeometry>
        </mxCell>
        <mxCell id="YZWkK0QSVy-SKpIgM2Q_-57" value="&lt;font style=&quot;font-size: 10px;&quot;&gt;Bank &lt;br&gt;&amp;lt; 9&lt;/font&gt;" style="rhombus;whiteSpace=wrap;html=1;movable=1;resizable=1;rotatable=1;deletable=1;editable=1;locked=0;connectable=1;" parent="1" vertex="1">
          <mxGeometry x="-35" y="404.34" width="50" height="50" as="geometry" />
        </mxCell>
        <mxCell id="YZWkK0QSVy-SKpIgM2Q_-62" style="edgeStyle=orthogonalEdgeStyle;rounded=0;orthogonalLoop=1;jettySize=auto;html=1;exitX=1;exitY=1;exitDx=0;exitDy=0;movable=1;resizable=1;rotatable=1;deletable=1;editable=1;locked=0;connectable=1;" parent="1" source="YZWkK0QSVy-SKpIgM2Q_-57" edge="1">
          <mxGeometry relative="1" as="geometry">
            <mxPoint x="20" y="499.34" as="targetPoint" />
            <Array as="points">
              <mxPoint x="20" y="442.34" />
            </Array>
          </mxGeometry>
        </mxCell>
        <mxCell id="YZWkK0QSVy-SKpIgM2Q_-83" value="No" style="edgeLabel;html=1;align=center;verticalAlign=middle;resizable=1;points=[];movable=1;rotatable=1;deletable=1;editable=1;locked=0;connectable=1;labelBackgroundColor=#FFF2CC;" parent="YZWkK0QSVy-SKpIgM2Q_-62" vertex="1" connectable="0">
          <mxGeometry x="0.1452" y="-1" relative="1" as="geometry">
            <mxPoint as="offset" />
          </mxGeometry>
        </mxCell>
        <mxCell id="YZWkK0QSVy-SKpIgM2Q_-68" style="edgeStyle=orthogonalEdgeStyle;rounded=0;orthogonalLoop=1;jettySize=auto;html=1;movable=1;resizable=1;rotatable=1;deletable=1;editable=1;locked=0;connectable=1;" parent="1" source="YZWkK0QSVy-SKpIgM2Q_-65" target="YZWkK0QSVy-SKpIgM2Q_-67" edge="1">
          <mxGeometry relative="1" as="geometry" />
        </mxCell>
        <mxCell id="YZWkK0QSVy-SKpIgM2Q_-84" value="Yes" style="edgeLabel;html=1;align=center;verticalAlign=middle;resizable=1;points=[];movable=1;rotatable=1;deletable=1;editable=1;locked=0;connectable=1;labelBackgroundColor=#FFF2CC;" parent="YZWkK0QSVy-SKpIgM2Q_-68" vertex="1" connectable="0">
          <mxGeometry x="-0.5267" relative="1" as="geometry">
            <mxPoint y="10" as="offset" />
          </mxGeometry>
        </mxCell>
        <mxCell id="YZWkK0QSVy-SKpIgM2Q_-81" style="edgeStyle=orthogonalEdgeStyle;rounded=0;orthogonalLoop=1;jettySize=auto;html=1;exitX=1;exitY=0;exitDx=0;exitDy=0;entryX=0.75;entryY=1;entryDx=0;entryDy=0;movable=1;resizable=1;rotatable=1;deletable=1;editable=1;locked=0;connectable=1;" parent="1" source="YZWkK0QSVy-SKpIgM2Q_-65" target="YZWkK0QSVy-SKpIgM2Q_-42" edge="1">
          <mxGeometry relative="1" as="geometry">
            <Array as="points">
              <mxPoint x="20" y="622.34" />
            </Array>
          </mxGeometry>
        </mxCell>
        <mxCell id="YZWkK0QSVy-SKpIgM2Q_-82" value="No" style="edgeLabel;html=1;align=center;verticalAlign=middle;resizable=1;points=[];movable=1;rotatable=1;deletable=1;editable=1;locked=0;connectable=1;labelBackgroundColor=#FFF2CC;" parent="YZWkK0QSVy-SKpIgM2Q_-81" vertex="1" connectable="0">
          <mxGeometry x="0.0946" relative="1" as="geometry">
            <mxPoint as="offset" />
          </mxGeometry>
        </mxCell>
        <mxCell id="YZWkK0QSVy-SKpIgM2Q_-65" value="&lt;font style=&quot;font-size: 10px;&quot;&gt;Bank &lt;br&gt;&amp;gt; 1&lt;/font&gt;" style="rhombus;whiteSpace=wrap;html=1;movable=1;resizable=1;rotatable=1;deletable=1;editable=1;locked=0;connectable=1;" parent="1" vertex="1">
          <mxGeometry x="-35" y="609.34" width="50" height="50" as="geometry" />
        </mxCell>
        <mxCell id="YZWkK0QSVy-SKpIgM2Q_-69" style="edgeStyle=orthogonalEdgeStyle;rounded=0;orthogonalLoop=1;jettySize=auto;html=1;movable=1;resizable=1;rotatable=1;deletable=1;editable=1;locked=0;connectable=1;" parent="1" source="YZWkK0QSVy-SKpIgM2Q_-67" edge="1">
          <mxGeometry relative="1" as="geometry">
            <mxPoint x="40" y="559.34" as="targetPoint" />
            <Array as="points">
              <mxPoint x="50" y="719.34" />
              <mxPoint x="50" y="619.34" />
              <mxPoint x="40" y="619.34" />
            </Array>
          </mxGeometry>
        </mxCell>
        <mxCell id="YZWkK0QSVy-SKpIgM2Q_-67" value="Load previous bank" style="rounded=1;whiteSpace=wrap;html=1;movable=1;resizable=1;rotatable=1;deletable=1;editable=1;locked=0;connectable=1;" parent="1" vertex="1">
          <mxGeometry x="-50" y="700.6600000000001" width="80" height="40" as="geometry" />
        </mxCell>
        <mxCell id="YZWkK0QSVy-SKpIgM2Q_-73" style="edgeStyle=orthogonalEdgeStyle;rounded=0;orthogonalLoop=1;jettySize=auto;html=1;exitX=1;exitY=0.75;exitDx=0;exitDy=0;entryX=0;entryY=0.624;entryDx=0;entryDy=0;entryPerimeter=0;movable=1;resizable=1;rotatable=1;deletable=1;editable=1;locked=0;connectable=1;" parent="1" source="YZWkK0QSVy-SKpIgM2Q_-42" target="YZWkK0QSVy-SKpIgM2Q_-2" edge="1">
          <mxGeometry relative="1" as="geometry" />
        </mxCell>
        <mxCell id="YZWkK0QSVy-SKpIgM2Q_-75" value="&lt;strong style=&quot;text-wrap-mode: wrap; color: rgb(59, 59, 59); font-family: -apple-system, BlinkMacSystemFont, &amp;quot;Segoe WPC&amp;quot;, &amp;quot;Segoe UI&amp;quot;, system-ui, Ubuntu, &amp;quot;Droid Sans&amp;quot;, sans-serif; text-align: start;&quot;&gt;&lt;font style=&quot;font-size: 12px;&quot;&gt;ðŸŸ¡&amp;nbsp;&lt;/font&gt;&lt;/strong&gt;Pressed&lt;br&gt;&lt;br&gt;OR&lt;br&gt;&lt;br&gt;60s no input" style="edgeLabel;html=1;align=center;verticalAlign=middle;resizable=1;points=[];movable=1;rotatable=1;deletable=1;editable=1;locked=0;connectable=1;labelBackgroundColor=#FFF2CC;" parent="YZWkK0QSVy-SKpIgM2Q_-73" vertex="1" connectable="0">
          <mxGeometry x="-0.1764" y="1" relative="1" as="geometry">
            <mxPoint x="-17" y="16" as="offset" />
          </mxGeometry>
        </mxCell>
        <mxCell id="YZWkK0QSVy-SKpIgM2Q_-90" value="RPi Booting..." style="text;html=1;align=left;verticalAlign=middle;resizable=1;points=[];autosize=1;strokeColor=none;fillColor=none;movable=1;rotatable=1;deletable=1;editable=1;locked=0;connectable=1;" parent="1" vertex="1">
          <mxGeometry x="410" y="105" width="100" height="30" as="geometry" />
        </mxCell>
        <mxCell id="YZWkK0QSVy-SKpIgM2Q_-97" style="edgeStyle=orthogonalEdgeStyle;rounded=0;orthogonalLoop=1;jettySize=auto;html=1;endArrow=none;startFill=0;" parent="1" source="YZWkK0QSVy-SKpIgM2Q_-94" edge="1">
          <mxGeometry relative="1" as="geometry">
            <mxPoint x="710" y="530" as="targetPoint" />
            <Array as="points">
              <mxPoint x="710" y="515" />
            </Array>
          </mxGeometry>
        </mxCell>
        <mxCell id="YZWkK0QSVy-SKpIgM2Q_-94" value="Select random song" style="rounded=1;whiteSpace=wrap;html=1;" parent="1" vertex="1">
          <mxGeometry x="590" y="499.34" width="90" height="32" as="geometry" />
        </mxCell>
      </root>
    </mxGraphModel>
  </diagram>
</mxfile>
